# File created by Blade
# Date/Time:  Thu Jan 22 19:01:15 2015
# Frame Rate: 120.000 fps
#------------------------------------------------------
:FULLY-SPECIFIED
:DEGREES
1972
root -3.115206 33.231535 0.265455 9.087871 -0.801083 2.568421
RightUpLeg -0.619169 -5.742113 -1.332913
RightLeg -1.436505 -0.000000 0.000000
RightFoot -10.701647 -5.010322 3.130038
RightToeBase 5.531560 -0.000000 -0.000000
LeftUpLeg -0.624111 5.010595 1.644327
LeftLeg -0.894164 -0.000000 0.000000
LeftFoot -8.805301 -0.629994 -10.634717
LeftToeBase 7.626801 -0.000000 -0.000000
Spine -12.703543 -3.034835 -3.733375
RightShoulder -29.390165 8.771743 -50.201629
RightArm 135.176397 42.903464 112.748725
RightForeArm 31.829992 0.000000 151.964315
RightHand 20.378457 -0.000000 -14.752252
RightHandThumb1 -24.326973 -0.000000 -32.862282
LeftShoulder -11.072370 19.256099 12.687846
LeftArm -169.326108 62.411013 -262.833757
LeftForeArm 24.307801 -0.000000 133.627998
LeftHand -20.155713 0.000000 -38.631640
LeftHandThumb1 -26.253704 0.000000 33.147579
Head 9.328756 3.075968 5.117690
1973
root -3.114614 33.231302 0.263349 9.086921 -0.814150 2.568845
RightUpLeg -0.629159 -5.719604 -1.336809
RightLeg -1.425933 -0.000000 0.000000
RightFoot -10.709800 -5.015131 3.148996
RightToeBase 5.533234 -0.000000 -0.000000
LeftUpLeg -0.625394 4.993122 1.640864
LeftLeg -0.889748 -0.000000 0.000000
LeftFoot -8.814484 -0.613503 -10.671499
LeftToeBase 7.644446 -0.000000 -0.000000
Spine -12.705852 -3.035525 -3.716900
RightShoulder -29.388194 8.742815 -50.173721
RightArm 135.251389 42.864804 112.855433
RightForeArm 31.841432 -0.000000 151.963934
RightHand 20.428734 -0.000000 -14.840762
RightHandThumb1 -24.326973 -0.000000 -32.862282
LeftShoulder -11.108307 19.314107 12.703058
LeftArm -169.246116 62.425888 -262.660346
LeftForeArm 24.333590 -0.000000 133.655336
LeftHand -20.287117 -0.000000 -38.717189
LeftHandThumb1 -26.253704 0.000000 33.147579
Head 9.341977 3.099247 5.144037
1974
root -3.113245 33.231247 0.261408 9.082428 -0.818384 2.570401
RightUpLeg -0.634336 -5.716481 -1.342184
RightLeg -1.413899 -0.000000 0.000000
RightFoot -10.716404 -5.012964 3.152193
RightToeBase 5.500916 -0.000000 -0.000000
LeftUpLeg -0.634017 5.014717 1.628302
LeftLeg -0.880030 -0.000000 0.000000
LeftFoot -8.830364 -0.596145 -10.737243
LeftToeBase 7.724651 -0.000000 -0.000000
Spine -12.707606 -3.048957 -3.695386
RightShoulder -29.373291 8.721134 -50.155528
RightArm 135.267396 42.873683 112.899767
RightForeArm 31.856507 0.000000 151.975451
RightHand 20.419122 0.000000 -14.789677
RightHandThumb1 -24.326973 -0.000000 -32.862282
LeftShoulder -11.134928 19.385366 12.710750
LeftArm -169.175350 62.470224 -262.518850
LeftForeArm 24.357808 -0.000000 133.711212
LeftHand -20.507210 -0.000000 -38.840956
LeftHandThumb1 -26.253704 0.000000 33.147579
Head 9.369827 3.113588 5.158054
1975
root -3.112618 33.231582 0.258966 9.079888 -0.821546 2.575805
RightUpLeg -0.645854 -5.724788 -1.348213
RightLeg -1.394205 -0.000000 0.000000
RightFoot -10.729954 -4.997887 3.149955
RightToeBase 5.573676 -0.000000 -0.000000
LeftUpLeg -0.642302 4.980229 1.630122
LeftLeg -0.854067 -0.000000 0.000000
LeftFoot -8.831406 -0.596640 -10.685077
LeftToeBase 7.645430 -0.000000 -0.000000
Spine -12.703773 -3.058640 -3.682874
RightShoulder -29.376550 8.683283 -50.122514
RightArm 135.280289 42.870279 112.928841
RightForeArm 31.837676 -0.000000 151.982199
RightHand 20.407264 0.000000 -14.854930
RightHandThumb1 -24.326973 -0.000000 -32.862282
LeftShoulder -11.162104 19.431014 12.725537
LeftArm -169.084991 62.485970 -262.352994
LeftForeArm 24.363723 -0.000000 133.722798
LeftHand -20.676716 -0.000000 -38.923526
LeftHandThumb1 -26.253704 0.000000 33.147579
Head 9.372812 3.130269 5.185037
1976
root -3.111449 33.231743 0.256567 9.072356 -0.828525 2.579905
RightUpLeg -0.653162 -5.703190 -1.354437
RightLeg -1.374916 -0.000000 0.000000
RightFoot -10.741154 -5.024013 3.139004
RightToeBase 5.548408 -0.000000 -0.000000
LeftUpLeg -0.649843 4.965921 1.625194
LeftLeg -0.828565 -0.000000 0.000000
LeftFoot -8.837953 -0.592003 -10.681610
LeftToeBase 7.608767 -0.000000 -0.000000
Spine -12.693846 -3.059225 -3.677201
RightShoulder -29.375397 8.673341 -50.098769
RightArm 135.290160 42.885162 112.975004
RightForeArm 31.850324 -0.000000 151.985765
RightHand 20.427698 -0.000000 -14.882674
RightHandThumb1 -24.326973 -0.000000 -32.862282
LeftShoulder -11.180468 19.491399 12.751389
LeftArm -169.043938 62.522601 -262.256800
LeftForeArm 24.344693 0.000000 133.758170
LeftHand -20.921362 -0.000000 -39.019423
LeftHandThumb1 -26.253704 0.000000 33.147579
Head 9.374910 3.124131 5.228649
1977
root -3.110075 33.232023 0.254810 9.068518 -0.837027 2.586944
RightUpLeg -0.653497 -5.696343 -1.366853
RightLeg -1.375417 -0.000000 0.000000
RightFoot -10.733920 -5.013487 3.170237
RightToeBase 5.520083 -0.000000 -0.000000
LeftUpLeg -0.658611 4.961457 1.615116
LeftLeg -0.805108 -0.000000 0.000000
LeftFoot -8.847307 -0.582438 -10.666811
LeftToeBase 7.613526 -0.000000 -0.000000
Spine -12.691266 -3.067576 -3.673313
RightShoulder -29.373644 8.681593 -50.071929
RightArm 135.277312 42.898902 112.991412
RightForeArm 31.863321 0.000000 151.991048
RightHand 20.411783 -0.000000 -14.939937
RightHandThumb1 -24.326973 -0.000000 -32.862282
LeftShoulder -11.215037 19.540439 12.767015
LeftArm -168.974916 62.564296 -262.134328
LeftForeArm 24.298635 -0.000000 133.784667
LeftHand -21.115959 -0.000000 -39.121032
LeftHandThumb1 -26.253704 0.000000 33.147579
Head 9.372485 3.135457 5.275416
1978
root -3.108709 33.232451 0.252064 9.061721 -0.834896 2.590230
RightUpLeg -0.654604 -5.706279 -1.370535
RightLeg -1.370726 -0.000000 0.000000
RightFoot -10.740509 -5.015469 3.143736
RightToeBase 5.581047 -0.000000 -0.000000
LeftUpLeg -0.675151 4.937594 1.610566
LeftLeg -0.769591 -0.000000 0.000000
LeftFoot -8.863030 -0.561497 -10.668598
LeftToeBase 7.612845 -0.000000 -0.000000
Spine -12.681439 -3.068165 -3.665247
RightShoulder -29.377752 8.660728 -50.042426
RightArm 135.283282 42.915189 113.016739
RightForeArm 31.861255 -0.000000 152.000358
RightHand 20.425350 0.000000 -15.004203
RightHandThumb1 -24.326973 -0.000000 -32.862282
LeftShoulder -11.228445 19.565167 12.787605
LeftArm -168.918170 62.530671 -262.049051
LeftForeArm 24.393199 0.000000 133.785502
LeftHand -21.341338 -0.000000 -39.163426
LeftHandThumb1 -26.253704 0.000000 33.147579
Head 9.364762 3.115922 5.323097
